<?xml version="1.0" encoding="iso-8859-1"?>
<!-- Generator: Adobe Illustrator 19.0.0, SVG Export Plug-In . SVG Version: 6.00 Build 0)  -->
<svg version="1.1" id="Capa_1" xmlns="http://www.w3.org/2000/svg" xmlns:xlink="http://www.w3.org/1999/xlink" x="0px" y="0px"
	 viewBox="0 0 512 512" style="enable-background:new 0 0 512 512;" xml:space="preserve">
<g>
	<g>
		<path d="M470.781,52.673c1,0-15.786-1.27-29.112,12.059c-12.037,12.037-99.224,99.224-110.332,110.332v-73.191
			c0-32.643-26.557-59.199-59.199-59.199H59.201C26.558,42.673,0,69.229,0,101.872c0,4.143,3.357,7.5,7.5,7.5h95.901v24.861
			c0,4.143,3.357,7.5,7.5,7.5s7.5-3.357,7.5-7.5c0-38.013,0.048-33.525-0.166-36.562c-1.104-15.665-8.364-29.899-19.692-40h173.595
			c24.372,0,44.2,19.827,44.2,44.2v88.19c-76.103,76.104-72.482,71.932-73.259,74.513c-0.13,0.431-0.24,0.955-0.289,1.482
			c-6.685,18.414-10.058,27.53-26.571,73.025c-0.995,2.741-0.311,5.811,1.755,7.87c2.193,2.187,5.275,2.749,7.922,1.777
			c79.861-29.263,75.608-27.392,77.281-29.058l13.162-13.162l-0.001,96.119H214.302c-4.143,0-7.5,3.357-7.5,7.5
			c0,24.372-19.827,44.2-44.2,44.2c-24.372,0-44.201-19.827-44.201-44.2V159.902c0-4.143-3.357-7.5-7.5-7.5s-7.5,3.357-7.5,7.5
			v250.226c0,32.643,26.557,59.199,59.2,59.199h212.936c32.643,0,59.199-26.557,59.199-59.199c0-4.143-3.357-7.5-7.5-7.5h-95.9
			V291.51l57.552-57.552c2.929-2.93,2.929-7.678,0-10.607c-2.93-2.928-7.678-2.928-10.607,0l-80.41,80.411l-13.201-13.2
			L402.43,172.803l13.2,13.201l-19.346,19.346c-2.929,2.93-2.929,7.678,0,10.607c2.93,2.928,7.678,2.928,10.607,0
			c101.585-101.586,95.747-95.078,99.351-101.188C522.411,87.364,502.607,52.673,470.781,52.673z M102.752,94.372H15.637
			C23.849,46.519,94.268,44.926,102.752,94.372z M419.101,417.628c-3.571,20.813-21.746,36.7-43.563,36.7H201.943
			c10.712-9.549,17.599-22.639,19.385-36.7C230.306,417.628,411.396,417.628,419.101,417.628z M235.889,329.029l4.962-13.673
			l8.677,8.676L235.889,329.029z M265.097,318.39L246.5,299.793l6.975-19.214c4.476,4.476,26.046,26.045,30.789,30.788
			L265.097,318.39z M274.065,279.955l-13.013-13.013L378.81,149.184l13.012,13.014L274.065,279.955z M426.234,175.398
			l-37.009-37.011c2.604-2.604,8.618-8.617,11.223-11.221l37.009,37.009L426.234,175.398z M448.066,153.568l-37.009-37.009
			c1.196-1.198,10.064-10.067,11.224-11.227l37.011,37.01L448.066,153.568z M489.286,112.348l-19.387,19.387l-37.011-37.01
			l19.388-19.388c4.942-4.944,11.515-7.666,18.505-7.665C493.972,67.672,505.757,95.878,489.286,112.348z"/>
	</g>
</g>
<g>
</g>
<g>
</g>
<g>
</g>
<g>
</g>
<g>
</g>
<g>
</g>
<g>
</g>
<g>
</g>
<g>
</g>
<g>
</g>
<g>
</g>
<g>
</g>
<g>
</g>
<g>
</g>
<g>
</g>
</svg>
